HIERARCHY
ROOT SimulationBone
{
	OFFSET 0.000000 0.000000 0.000000
	CHANNELS 6 Xposition Yposition Zposition Zrotation Yrotation Xrotation 
	JOINT Hips
	{
		OFFSET 0.000000 0.000000 0.000000
		CHANNELS 6 Xposition Yposition Zposition Zrotation Yrotation Xrotation 
		JOINT LeftUpLeg
		{
			OFFSET 0.103459 1.857839 10.548500
			CHANNELS 3 Zrotation Yrotation Xrotation
			JOINT LeftLeg
			{
				OFFSET 43.500004 -0.000053 -0.000011
				CHANNELS 3 Zrotation Yrotation Xrotation
				JOINT LeftFoot
				{
					OFFSET 42.372192 0.000015 -0.000008
					CHANNELS 3 Zrotation Yrotation Xrotation
					JOINT LeftToe
					{
						OFFSET 17.300007 0.000002 0.000013
						CHANNELS 3 Zrotation Yrotation Xrotation
						End Site
						{
							OFFSET 0.000000 0.000000 0.000000
						}
					}
				}
			}
		}
		JOINT RightUpLeg
		{
			OFFSET 0.103460 1.857826 -10.548500
			CHANNELS 3 Zrotation Yrotation Xrotation
			JOINT RightLeg
			{
				OFFSET 43.500046 -0.000019 0.000011
				CHANNELS 3 Zrotation Yrotation Xrotation
				JOINT RightFoot
				{
					OFFSET 42.372261 0.000004 0.000012
					CHANNELS 3 Zrotation Yrotation Xrotation
					JOINT RightToe
					{
						OFFSET 17.299995 -0.000004 0.000006
						CHANNELS 3 Zrotation Yrotation Xrotation
						End Site
						{
							OFFSET 0.000000 0.000000 0.000000
						}
					}
				}
			}
		}
		JOINT Spine
		{
			OFFSET 6.901963 -2.603745 -0.000005
			CHANNELS 3 Zrotation Yrotation Xrotation
			JOINT Spine1
			{
				OFFSET 12.588102 0.000012 0.000012
				CHANNELS 3 Zrotation Yrotation Xrotation
				JOINT Spine2
				{
					OFFSET 12.343202 0.000010 -0.000009
					CHANNELS 3 Zrotation Yrotation Xrotation
					JOINT Neck
					{
						OFFSET 25.832901 -0.000008 0.000006
						CHANNELS 3 Zrotation Yrotation Xrotation
						JOINT Head
						{
							OFFSET 11.766603 0.000007 -0.000001
							CHANNELS 3 Zrotation Yrotation Xrotation
							End Site
							{
								OFFSET 0.000000 0.000000 0.000000
							}
						}
					}
					JOINT LeftShoulder
					{
						OFFSET 19.745903 -1.480391 6.000108
						CHANNELS 3 Zrotation Yrotation Xrotation
						JOINT LeftArm
						{
							OFFSET 11.284125 -0.000031 -0.000021
							CHANNELS 3 Zrotation Yrotation Xrotation
							JOINT LeftForeArm
							{
								OFFSET 33.000046 0.000024 0.000034
								CHANNELS 3 Zrotation Yrotation Xrotation
								JOINT LeftHand
								{
									OFFSET 25.200014 0.000020 0.000007
									CHANNELS 3 Zrotation Yrotation Xrotation
									End Site
									{
										OFFSET 0.000000 0.000000 0.000000
									}
								}
							}
						}
					}
					JOINT RightShoulder
					{
						OFFSET 19.746098 -1.480371 -6.000075
						CHANNELS 3 Zrotation Yrotation Xrotation
						JOINT RightArm
						{
							OFFSET 11.284128 -0.000021 -0.000009
							CHANNELS 3 Zrotation Yrotation Xrotation
							JOINT RightForeArm
							{
								OFFSET 33.000095 0.000034 0.000006
								CHANNELS 3 Zrotation Yrotation Xrotation
								JOINT RightHand
								{
									OFFSET 25.199781 0.000147 0.000427
									CHANNELS 3 Zrotation Yrotation Xrotation
									End Site
									{
										OFFSET 0.000000 0.000000 0.000000
									}
								}
							}
						}
					}
				}
			}
		}
	}
}
MOTION
Frames: 7
Frame Time: 0.016667
-216.649180 0.000000 -562.726159 0.000000 96.558801 0.000000 1.105154 80.513008 3.492669 95.411860 5.924206 -177.199806 143.574072 -1.681305 158.747626 -50.536743 0.404672 -12.436280 86.593807 11.138452 14.981393 21.454548 0.003086 -0.000001 161.676725 7.431494 169.340183 -85.113780 -5.487499 5.721912 69.826245 -1.982299 5.608642 21.454563 -0.003112 -0.000013 7.659497 0.467463 -2.087263 5.287736 1.029146 -4.151273 4.970501 1.004213 -4.157387 23.733210 6.406172 10.463786 -16.160847 -24.224513 19.894756 -146.546928 -87.237044 -35.251945 -27.963304 58.982807 17.718879 -88.717811 -6.102007 2.675101 -1.061213 2.719188 15.330349 -150.695063 75.849416 31.387948 20.181241 -47.341915 -15.474646 -102.199409 1.199227 -2.976466 -5.678114 5.847330 -13.171240 
-217.327746 0.000000 -564.362560 0.000000 100.638683 0.000000 1.185962 80.252510 3.136683 95.238750 6.210920 -178.022000 144.173223 0.383897 160.644369 -52.116703 0.114286 -12.387823 88.613525 10.838969 15.202520 21.454552 0.003090 0.000000 159.971563 6.484258 168.899271 -87.997925 -5.053030 5.701555 71.018132 -2.463426 4.294888 21.454556 -0.003109 -0.000021 7.684794 0.466273 -2.147594 5.337759 1.030447 -4.271674 5.020586 1.004779 -4.277790 24.499242 7.239692 10.306250 -16.996475 -24.253711 19.922360 -157.228232 -87.422850 -24.521022 -29.827807 59.473947 15.349449 -86.707226 -7.732987 2.713126 0.579367 2.714231 20.120863 -151.734571 75.687808 30.329677 21.892792 -49.097842 -15.932536 -98.691091 1.252637 -2.755453 -4.698646 5.080398 -16.249013 
-218.132314 0.000000 -565.991342 0.000000 104.801950 0.000000 1.052039 80.436111 2.872416 95.098906 6.469334 -179.382996 145.739639 1.797296 161.011628 -52.274357 0.110912 -11.399304 89.923681 10.067044 15.743700 21.454553 0.003093 0.000001 158.143482 5.186489 168.079549 -89.602095 -4.926114 5.765550 72.319183 -2.551090 4.307578 21.454555 -0.003108 -0.000020 7.774942 0.508400 -2.114471 5.516840 1.116398 -4.202621 5.199620 1.091149 -4.209259 24.794070 7.199527 10.029486 -17.463822 -24.008095 19.643950 -168.677172 -87.416438 -13.024828 -31.729633 59.961880 12.482019 -85.512028 -8.568885 2.706382 0.689960 2.866994 23.274146 -151.878898 75.942894 30.175067 22.821526 -51.127797 -17.574875 -94.294367 2.736188 -2.730261 -5.243446 5.281024 -18.571037 
-219.055527 0.000000 -567.609239 0.000000 109.013520 0.000000 0.782280 80.905833 2.682684 94.873075 6.695621 179.011081 147.798697 2.786353 160.475765 -51.531543 0.244086 -9.750166 90.670980 8.965260 16.465869 21.454552 0.003095 0.000001 156.196315 3.612589 167.160096 -90.080947 -5.027500 6.103380 73.481484 -2.648742 4.885542 21.454556 -0.003108 -0.000016 7.868515 0.580307 -2.047287 5.702201 1.260198 -4.063876 5.384890 1.235794 -4.071388 24.813679 6.685156 9.720458 -17.564704 -23.738535 19.242545 -176.765115 -87.318714 -4.902349 -33.617161 60.484144 9.458812 -85.076471 -8.795900 2.698238 0.142475 3.165300 25.092050 -151.790751 76.352933 30.253963 23.314143 -52.827920 -20.172082 -89.648310 4.959929 -2.712076 -6.465670 6.108621 -20.316881 
-220.090027 0.000000 -569.212985 0.000000 113.236100 0.000000 0.451245 81.503700 2.574471 94.443755 6.858615 177.454980 149.922733 3.566408 159.644634 -50.411668 0.356620 -7.714433 91.007974 7.683262 17.241325 21.454553 0.003096 0.000001 154.117890 1.853200 166.414486 -89.590306 -5.285885 6.888201 74.261156 -3.123485 5.253665 21.454557 -0.003108 -0.000015 7.904015 0.668686 -2.005585 5.770742 1.435974 -3.975794 5.453357 1.412108 -3.984368 24.751463 6.096766 9.474281 -17.298243 -23.692078 18.902765 -179.395970 -87.291781 -2.260036 -35.439371 61.092734 6.620738 -85.341471 -8.600953 2.701109 -0.206922 3.473744 25.876492 -152.154046 76.653193 29.875000 23.608107 -53.600112 -23.416992 -85.403660 7.219147 -2.647271 -7.481192 7.302441 -21.664522 
-221.228460 0.000000 -570.799314 0.000000 117.432284 0.000000 0.110678 82.120397 2.556437 93.759743 6.926340 176.203731 151.841905 4.285039 159.029092 -49.285937 0.353736 -5.528556 91.019806 6.357348 17.970248 21.454554 0.003095 0.000000 151.956110 0.036858 166.021829 -88.236332 -5.649219 8.149487 74.570066 -4.134323 4.933259 21.454556 -0.003108 -0.000022 7.845214 0.765977 -2.036858 5.649477 1.629873 -4.034479 5.332081 1.605652 -4.044216 24.746951 5.715064 9.350589 -16.713636 -23.987569 18.736575 -175.882114 -87.438267 -5.790664 -37.129394 61.811987 4.269122 -86.194776 -8.163094 2.710854 0.176975 3.631598 25.944728 -153.407569 76.662235 28.595117 23.809510 -53.109773 -26.922935 -82.064816 8.962435 -2.606112 -7.635916 8.560899 -22.605039 
-222.463468 0.000000 -572.364960 0.000000 121.566666 0.000000 -0.243981 82.841263 2.562405 93.015888 6.966784 175.357216 153.848794 4.983400 158.760480 -47.884949 0.279791 -3.260306 90.495429 5.070365 18.659115 21.454555 0.003091 0.000000 150.075511 -1.621314 165.788212 -85.916559 -6.076651 9.367382 74.914559 -5.104839 4.642977 21.454557 -0.003107 -0.000026 7.757632 0.886937 -2.139529 5.468547 1.873325 -4.235536 5.151192 1.847886 -4.246729 24.745545 5.335818 9.277398 -16.082106 -24.227971 18.589620 -168.810114 -87.697231 -12.891956 -38.532999 62.511829 2.574510 -87.320211 -7.631684 2.720446 0.564920 3.502572 25.648332 -154.882064 76.548807 27.092049 24.096589 -52.084733 -30.436087 -79.508182 10.240867 -2.599758 -7.259235 9.262276 -22.530340 
